<?xml version="1.0" standalone="no"?>
<!DOCTYPE svg PUBLIC "-//W3C//DTD SVG 20010904//EN"
 "http://www.w3.org/TR/2001/REC-SVG-20010904/DTD/svg10.dtd">
<svg version="1.0" xmlns="http://www.w3.org/2000/svg"
 width="1550.000000pt" height="2280.000000pt" viewBox="0 0 1550.000000 2280.000000"
 preserveAspectRatio="xMidYMid meet">
<metadata>
Created by potrace 1.15, written by Peter Selinger 2001-2017
</metadata>
<g transform="translate(0.000000,2280.000000) scale(0.100000,-0.100000)"
fill="#000000" stroke="none">
<path  d="M12862 21989 c-98 -19 -224 -117 -264 -205 -14 -31 -55 -34 -398 -34
l-298 0 -26 44 c-37 63 -117 131 -184 156 -81 31 -235 26 -305 -9 -61 -30
-147 -113 -176 -169 l-21 -42 -283 0 c-155 0 -338 -3 -407 -6 l-125 -7 -24 53
c-46 101 -155 178 -288 201 -123 22 -259 -30 -340 -130 -25 -31 -50 -66 -55
-77 -14 -31 -53 -34 -459 -34 l-358 0 -37 56 c-75 112 -200 171 -344 161 -182
-12 -313 -135 -341 -319 -10 -64 -9 -83 8 -150 l19 -77 -684 -728 c-376 -400
-694 -738 -706 -751 l-23 -24 -85 26 c-249 76 -497 -27 -605 -253 l-38 -78
-74 -7 c-41 -3 -410 -6 -821 -6 l-747 0 -16 66 c-23 93 -92 246 -142 312 -65
89 -203 213 -281 254 -89 46 -189 85 -253 99 l-51 11 0 447 0 448 40 18 c48
22 140 115 169 173 27 52 40 154 30 227 -17 126 -105 242 -215 285 -47 19 -78
24 -159 24 -90 1 -106 -2 -158 -28 -70 -34 -143 -105 -177 -172 -23 -44 -25
-61 -25 -169 0 -107 3 -125 24 -165 32 -61 123 -153 171 -175 l40 -18 0 -447
0 -448 -65 -16 c-88 -22 -237 -87 -302 -132 -29 -20 -93 -79 -143 -131 -75
-78 -98 -111 -140 -196 -112 -229 -128 -447 -50 -679 17 -49 30 -95 30 -101 0
-7 -12 -20 -28 -29 -15 -9 -232 -157 -482 -329 -250 -172 -462 -312 -470 -312
-8 1 -46 13 -85 27 -206 75 -426 -25 -490 -222 -25 -76 -17 -229 15 -297 36
-74 114 -147 185 -174 220 -83 449 17 510 223 8 27 15 87 15 132 l0 83 158
109 c383 265 820 562 826 562 4 0 34 -22 66 -49 105 -88 254 -164 383 -196
l67 -17 0 -638 c0 -350 -3 -664 -7 -696 l-6 -59 -79 -38 c-108 -53 -173 -118
-229 -231 l-44 -89 0 -126 c0 -119 2 -130 31 -196 l30 -70 -99 -108 c-55 -59
-372 -396 -704 -750 -479 -508 -610 -641 -627 -639 -11 2 -68 4 -126 5 -99 2
-109 0 -172 -30 -77 -36 -142 -98 -178 -169 -22 -44 -25 -61 -25 -164 0 -106
2 -119 28 -173 36 -71 114 -151 173 -173 l44 -17 0 -396 c0 -218 -4 -401 -8
-407 -4 -6 -21 -19 -39 -28 -51 -26 -129 -110 -160 -173 -25 -53 -28 -68 -28
-163 0 -93 3 -111 27 -163 32 -69 123 -162 168 -172 l30 -7 0 -378 c0 -207 -3
-391 -6 -408 -4 -21 -15 -34 -35 -43 -43 -17 -135 -112 -164 -168 -70 -138
-47 -315 56 -426 50 -54 86 -75 129 -75 l30 0 0 -394 c0 -217 -3 -402 -6 -410
-3 -9 -21 -23 -40 -32 -54 -26 -149 -135 -173 -199 -28 -74 -28 -180 -1 -268
23 -75 85 -152 156 -193 l44 -26 0 -376 c0 -208 -4 -382 -8 -388 -4 -6 -21
-19 -39 -28 -51 -26 -129 -110 -160 -173 -25 -53 -28 -68 -28 -163 0 -93 3
-111 27 -163 32 -69 123 -162 168 -172 l30 -7 0 -378 c0 -207 -3 -391 -6 -408
-4 -21 -15 -34 -35 -43 -43 -17 -135 -112 -164 -168 -70 -138 -47 -315 56
-426 50 -54 86 -75 129 -75 l30 0 0 -394 c0 -217 -3 -402 -6 -410 -3 -9 -21
-23 -40 -32 -54 -26 -149 -135 -173 -199 -28 -74 -28 -180 -1 -268 24 -79 88
-154 167 -199 l53 -30 0 -376 c0 -208 -4 -382 -8 -388 -4 -6 -21 -19 -39 -28
-51 -26 -129 -110 -160 -173 -25 -53 -28 -68 -28 -163 0 -93 3 -111 27 -163
32 -69 123 -162 168 -172 l30 -7 0 -378 c0 -207 -3 -391 -6 -408 -4 -21 -15
-34 -35 -43 -43 -17 -135 -112 -164 -168 -70 -138 -47 -315 56 -426 50 -54 86
-75 129 -75 l30 0 0 -394 c0 -217 -3 -402 -6 -410 -3 -9 -21 -23 -40 -32 -54
-26 -149 -135 -173 -199 -12 -31 -21 -61 -21 -68 -1 -16 -330 -242 -350 -240
-8 1 -46 13 -85 27 -206 75 -426 -25 -490 -222 -25 -76 -17 -229 15 -297 36
-74 114 -147 185 -174 220 -83 449 17 510 223 8 27 15 87 15 132 l0 83 125 86
c69 48 125 90 125 95 0 5 20 -12 45 -39 24 -26 67 -60 95 -75 98 -53 249 -55
359 -3 189 88 259 358 139 538 -43 64 -123 135 -164 145 l-24 6 0 409 0 409
32 0 c47 0 147 104 177 185 38 101 29 248 -20 330 -30 49 -120 134 -161 152
l-38 17 0 408 0 408 28 0 c57 0 156 92 199 185 24 52 28 72 28 155 0 82 -4
103 -27 152 -33 72 -108 153 -170 184 l-48 24 0 385 0 385 48 22 c60 28 131
99 161 160 58 121 49 273 -21 379 -43 64 -123 135 -164 145 l-24 6 0 409 0
409 32 0 c47 0 147 104 177 185 38 101 29 248 -20 330 -30 49 -120 134 -161
152 l-38 17 0 408 0 408 28 0 c57 0 156 92 199 185 24 52 28 72 28 155 0 82
-4 103 -27 152 -33 72 -108 153 -170 184 l-48 24 0 378 0 378 38 13 c211 76
298 359 170 552 -43 64 -123 135 -164 145 l-24 6 0 409 0 409 31 0 c42 0 132
86 166 160 l26 55 314 98 313 98 57 -47 c92 -75 130 -88 253 -88 94 -1 111 2
160 26 84 41 135 90 172 166 30 60 33 77 36 169 4 97 2 107 -26 168 -61 129
-172 205 -313 213 -94 5 -174 -15 -246 -64 -77 -53 -127 -128 -153 -229 -5
-22 -14 -46 -19 -53 -7 -12 -529 -182 -558 -182 -7 0 -19 12 -27 28 -22 41
-116 131 -158 149 l-38 17 0 408 0 408 28 0 c57 0 156 92 199 185 24 52 28 72
28 155 0 82 -4 103 -27 152 -33 72 -108 153 -170 184 l-48 24 0 403 1 402 60
40 c89 59 138 127 165 230 19 68 17 118 -4 197 l-19 66 605 643 c333 354 650
692 706 752 l101 107 84 -25 c60 -18 108 -25 166 -25 l81 0 197 -426 197 -426
-24 -31 c-67 -89 -95 -199 -77 -299 22 -127 98 -230 209 -285 52 -25 67 -28
162 -28 92 1 112 4 160 27 81 38 134 89 172 166 31 63 33 72 33 177 0 98 -3
116 -27 167 -32 69 -97 136 -161 167 -26 13 -85 30 -130 39 l-82 15 -193 420
-192 419 49 67 c49 65 101 163 101 189 0 9 171 12 823 12 l824 0 22 -82 c12
-45 44 -128 71 -184 42 -87 64 -118 140 -197 49 -52 114 -111 143 -131 65 -45
214 -110 302 -132 l65 -16 0 -418 c0 -230 -3 -432 -6 -449 -5 -24 -16 -37 -44
-51 -57 -29 -145 -131 -170 -197 -31 -80 -31 -196 0 -276 46 -122 142 -204
267 -227 274 -52 485 146 452 424 -5 36 -18 84 -30 108 -29 58 -121 151 -169
173 l-40 18 0 447 0 447 83 22 c172 47 301 124 423 254 163 171 252 407 242
642 l-4 91 408 128 408 127 57 -47 c92 -75 130 -88 253 -88 94 -1 111 2 160
26 84 41 135 90 172 166 30 60 33 77 36 169 4 97 2 107 -26 168 -61 129 -172
205 -313 213 -94 5 -174 -15 -246 -64 -77 -53 -127 -128 -153 -231 -6 -23 -16
-48 -24 -55 -7 -7 -192 -69 -411 -137 l-398 -125 -16 22 c-9 11 -29 42 -45 67
-41 67 -178 208 -244 252 -70 46 -216 110 -299 130 l-63 16 0 631 c0 347 3
660 7 696 l6 65 79 38 c108 53 173 118 229 231 l44 89 0 126 c0 119 -2 130
-31 197 l-31 71 56 59 c31 32 302 320 602 639 300 319 593 627 651 685 l105
105 129 0 c110 1 136 4 174 22 106 49 190 142 190 210 l0 33 379 0 c208 0 392
-3 409 -6 21 -4 34 -15 43 -35 17 -43 112 -135 168 -163 101 -52 242 -52 346
-2 62 31 148 118 170 174 l16 40 372 -5 c205 -2 390 -6 412 -9 36 -4 43 -10
64 -50 32 -59 101 -119 179 -157 59 -28 68 -29 165 -25 76 3 114 9 149 25 68
31 141 103 174 173 l28 60 307 0 c169 0 320 -3 337 -6 21 -4 34 -15 43 -35 17
-43 112 -135 168 -163 101 -52 242 -52 346 -2 62 31 148 118 170 174 l16 40
372 -5 c205 -2 390 -6 412 -9 36 -4 43 -10 64 -50 49 -92 171 -173 276 -183
l59 -6 143 -308 143 -309 -24 -31 c-67 -89 -95 -198 -77 -299 22 -127 98 -230
209 -285 52 -25 67 -28 162 -28 92 1 112 4 160 27 81 38 134 89 172 166 31 63
33 72 33 177 0 98 -3 116 -27 167 -32 69 -97 136 -161 167 -26 13 -85 30 -130
39 l-82 15 -136 296 -137 296 28 30 c16 17 41 55 57 85 26 51 28 64 28 170 0
106 -2 120 -28 172 -36 74 -119 150 -195 178 -81 31 -235 26 -305 -9 -61 -30
-147 -113 -176 -169 l-21 -42 -283 0 c-155 0 -338 -3 -407 -6 l-125 -7 -24 53
c-45 99 -152 176 -280 200 -61 11 -78 11 -139 -1z m139 -272 c44 -30 61 -63
55 -110 -8 -72 -82 -120 -151 -97 -97 32 -105 175 -12 215 45 20 69 18 108 -8z
m1549 -5 c14 -10 31 -37 39 -59 13 -36 12 -43 -5 -79 -27 -55 -81 -81 -134
-65 -71 21 -107 99 -75 160 35 68 114 87 175 43z m-4479 -15 c44 -30 61 -63
55 -110 -8 -72 -82 -120 -151 -97 -97 32 -105 175 -12 215 45 20 69 18 108 -8z
m1549 -5 c14 -10 31 -37 39 -59 13 -36 12 -43 -5 -79 -27 -55 -81 -81 -134
-65 -71 21 -107 99 -75 160 35 68 114 87 175 43z m-8061 -17 c28 -14 61 -68
61 -100 0 -32 -33 -86 -61 -100 -61 -32 -135 -10 -163 49 -20 43 -20 59 0 102
28 59 102 81 163 49z m5000 0 c28 -14 61 -68 61 -100 0 -32 -33 -86 -61 -100
-61 -32 -135 -10 -163 49 -20 43 -20 59 0 102 28 59 102 81 163 49z m6540
-1220 c28 -14 61 -68 61 -100 0 -32 -33 -86 -61 -100 -61 -32 -135 -10 -163
49 -20 43 -20 59 0 102 28 59 102 81 163 49z m-11474 -400 c116 -24 208 -76
301 -169 44 -45 94 -106 111 -137 102 -182 107 -382 16 -568 -52 -106 -178
-232 -284 -284 -164 -80 -334 -87 -494 -20 -248 104 -413 365 -392 617 13 152
71 272 191 392 154 154 344 212 551 169z m2958 -379 c55 -20 104 -61 129 -109
32 -60 32 -175 0 -235 -82 -155 -322 -161 -415 -10 -34 55 -46 145 -27 203 15
46 93 132 135 151 39 17 130 17 178 0z m-563 -368 c0 -7 13 -41 30 -76 51
-108 177 -223 278 -253 l42 -12 0 -697 0 -698 -64 -16 c-74 -18 -206 -72 -273
-111 -59 -35 -194 -164 -248 -237 -49 -66 -119 -219 -142 -312 l-16 -66 -822
0 -822 0 -12 43 c-30 100 -145 226 -253 277 -35 17 -69 30 -75 30 -10 0 -13
146 -13 699 l0 698 66 16 c93 23 246 92 312 142 32 23 94 81 140 129 68 72 92
107 132 191 27 56 59 138 71 183 l22 82 824 0 c652 0 823 -3 823 -12z m-4461
-1133 c28 -14 61 -68 61 -100 0 -32 -33 -86 -61 -100 -61 -32 -135 -10 -163
49 -20 43 -20 59 0 102 28 59 102 81 163 49z m7000 -750 c28 -14 61 -68 61
-100 0 -32 -33 -86 -61 -100 -61 -32 -136 -8 -164 51 -19 41 -19 58 1 100 28
59 102 81 163 49z m-1934 -120 c116 -24 208 -76 301 -169 44 -45 94 -106 111
-137 102 -182 107 -382 16 -568 -52 -106 -178 -232 -284 -284 -178 -87 -360
-87 -538 0 -106 52 -232 178 -284 284 -113 230 -77 486 95 674 161 175 366
246 583 200z m-3042 -379 c55 -20 104 -61 129 -109 32 -60 32 -175 0 -235 -82
-155 -322 -161 -415 -10 -34 55 -46 145 -27 203 15 46 93 132 135 151 39 17
130 17 178 0z m726 -1751 c28 -14 61 -68 61 -100 0 -32 -33 -86 -61 -100 -61
-32 -135 -10 -163 49 -20 43 -20 59 0 102 28 59 102 81 163 49z m-2750 -500
c28 -14 61 -68 61 -100 0 -32 -33 -86 -61 -100 -61 -32 -135 -10 -163 49 -20
43 -20 59 0 102 28 59 102 81 163 49z m5000 0 c28 -14 61 -68 61 -100 0 -32
-33 -86 -61 -100 -61 -32 -135 -10 -163 49 -20 43 -20 59 0 102 28 59 102 81
163 49z m-4988 -1528 c44 -30 61 -63 55 -110 -8 -72 -82 -120 -151 -97 -97 32
-105 175 -12 215 45 20 69 18 108 -8z m1288 -1192 c28 -14 61 -68 61 -100 0
-32 -33 -86 -61 -100 -61 -32 -136 -8 -164 51 -19 41 -19 58 1 100 28 59 102
81 163 49z m-1291 -322 c13 -8 30 -31 39 -51 30 -72 -19 -150 -99 -159 -37 -4
-49 -1 -75 21 -119 100 4 271 135 189z m5 -1495 c26 -13 57 -68 57 -101 0 -97
-126 -152 -196 -86 -50 47 -51 121 -3 169 40 39 89 45 142 18z m-22 -1481 c44
-30 61 -63 55 -110 -8 -72 -82 -120 -151 -97 -97 32 -105 175 -12 215 45 20
69 18 108 -8z m-3 -1514 c13 -8 30 -31 39 -51 30 -72 -19 -150 -99 -159 -37
-4 -49 -1 -75 21 -119 100 4 271 135 189z m5 -1495 c26 -13 57 -68 57 -101 0
-97 -126 -152 -196 -86 -50 47 -51 121 -3 169 40 39 89 45 142 18z m-2 -1491
c44 -30 61 -63 55 -110 -8 -72 -82 -120 -151 -97 -97 32 -105 175 -12 215 45
20 69 18 108 -8z m-3 -1514 c13 -8 30 -31 39 -51 30 -72 -19 -150 -99 -159
-37 -4 -49 -1 -75 21 -119 100 4 271 135 189z m5 -1495 c26 -13 57 -68 57
-101 0 -97 -126 -152 -196 -86 -50 47 -51 121 -3 169 40 39 89 45 142 18z
m-944 -493 c28 -14 61 -68 61 -100 0 -9 -7 -32 -16 -51 -41 -85 -167 -85 -208
0 -20 43 -20 59 0 102 28 59 102 81 163 49z"/>
<path d="M3123 19406 c21 -154 126 -275 276 -320 105 -31 101 -35 101 112 l0
128 -42 19 c-32 15 -48 31 -63 63 l-19 42 -130 0 -129 0 6 -44z"/>
<path d="M6605 16658 c-15 -32 -31 -48 -62 -63 l-43 -19 0 -128 c0 -147 -4
-143 101 -112 150 45 255 166 276 320 l6 44 -129 0 -130 0 -19 -42z"/>
</g>
</svg>
