<?xml version="1.0" standalone="no"?>
<!DOCTYPE svg PUBLIC "-//W3C//DTD SVG 20010904//EN"
 "http://www.w3.org/TR/2001/REC-SVG-20010904/DTD/svg10.dtd">
<svg version="1.0" xmlns="http://www.w3.org/2000/svg"
 width="1240.000000pt" height="1240.000000pt" viewBox="0 0 1240.000000 1240.000000"
 preserveAspectRatio="xMidYMid meet">
<metadata>
Created by potrace 1.15, written by Peter Selinger 2001-2017
</metadata>
<g transform="translate(0.000000,1240.000000) scale(0.100000,-0.100000)"
fill="#000000" stroke="none">
<path d="M7915 11723 c-28 -10 -67 -31 -87 -47 -35 -26 -98 -109 -98 -128 0
-4 -147 -8 -327 -8 l-328 1 -27 44 c-71 118 -238 166 -370 107 -135 -59 -205
-213 -164 -355 l17 -57 -552 -588 c-304 -323 -559 -595 -568 -604 -15 -16 -21
-15 -91 9 -63 21 -87 24 -149 20 -141 -11 -268 -97 -327 -222 -13 -27 -24 -56
-24 -62 0 -10 -139 -13 -663 -13 l-664 0 -12 58 c-7 31 -33 100 -58 152 -38
79 -59 108 -132 181 -73 73 -102 94 -181 132 -52 25 -121 51 -152 58 l-58 12
0 362 0 363 31 12 c45 19 117 94 142 148 33 72 31 179 -6 254 -53 107 -143
162 -267 163 -62 0 -85 -5 -132 -28 -64 -32 -111 -80 -142 -146 -29 -64 -29
-178 1 -243 25 -54 97 -129 142 -148 l31 -12 0 -363 0 -362 -57 -12 c-32 -7
-101 -33 -153 -58 -79 -38 -108 -59 -180 -132 -72 -71 -95 -102 -134 -181 -91
-185 -100 -383 -24 -569 18 -45 19 -55 7 -62 -8 -4 -187 -126 -397 -271 l-384
-264 -51 25 c-76 38 -180 37 -259 -2 -107 -53 -163 -144 -163 -267 0 -85 21
-142 74 -203 82 -92 237 -121 353 -64 108 53 162 143 163 270 l0 78 392 270
c215 148 395 269 398 269 4 0 32 -23 63 -51 65 -58 209 -131 295 -150 l57 -12
0 -564 c0 -444 -3 -563 -12 -563 -27 0 -115 -49 -160 -89 -32 -28 -60 -68 -85
-119 -36 -72 -38 -81 -38 -171 0 -83 4 -104 28 -155 l27 -58 -48 -53 c-26 -29
-281 -301 -567 -604 l-520 -552 -35 8 c-157 36 -301 -30 -364 -166 -32 -71
-29 -179 7 -253 31 -62 91 -121 144 -140 l33 -12 0 -327 c0 -318 -1 -328 -20
-334 -46 -15 -118 -85 -146 -142 -41 -82 -41 -183 -1 -265 29 -59 94 -124 134
-134 l23 -6 0 -328 c0 -319 -1 -329 -20 -335 -46 -15 -118 -85 -146 -142 -41
-82 -41 -183 -1 -265 36 -73 98 -128 144 -128 l33 0 0 -329 c0 -320 -1 -330
-20 -336 -46 -15 -118 -85 -146 -142 -24 -48 -29 -71 -29 -133 1 -124 56 -214
163 -267 47 -23 70 -28 132 -28 125 0 222 62 274 174 29 64 29 178 -1 243 -25
54 -97 129 -142 148 l-31 12 0 329 0 329 23 0 c36 0 103 64 134 128 37 75 39
182 6 254 -25 54 -97 129 -142 148 l-31 12 0 329 0 329 23 0 c35 0 103 54 137
106 55 87 63 194 21 289 -22 51 -95 126 -140 145 l-31 12 0 328 0 327 49 31
c60 37 106 97 126 165 19 64 19 110 0 175 l-16 52 557 593 c306 325 562 597
568 604 8 9 28 6 81 -13 50 -17 88 -24 134 -22 l64 1 158 -342 158 -342 -30
-42 c-111 -153 -53 -371 120 -451 34 -15 66 -21 121 -21 85 0 142 21 203 74
92 82 121 237 64 353 -46 95 -129 151 -242 166 l-56 7 -154 335 c-85 184 -155
338 -155 342 0 5 20 33 45 63 24 30 52 77 62 105 l18 50 661 0 661 0 12 -57
c7 -32 33 -101 58 -153 38 -79 59 -108 132 -181 73 -73 102 -94 181 -132 52
-25 121 -51 153 -58 l57 -12 0 -363 c0 -353 -1 -363 -20 -369 -46 -15 -118
-85 -146 -142 -41 -82 -41 -183 -1 -265 53 -107 144 -163 267 -163 123 0 214
56 267 163 37 75 39 182 6 254 -25 54 -97 129 -142 148 l-31 12 0 362 0 362
71 18 c195 50 365 187 452 366 56 115 80 221 75 338 l-3 84 331 104 332 104
38 -37 c60 -56 116 -78 204 -78 62 0 85 5 132 28 107 53 162 143 163 267 0 62
-5 85 -28 132 -123 251 -497 206 -558 -68 -12 -52 -14 -54 -58 -68 -25 -8
-156 -49 -291 -91 -135 -42 -264 -82 -287 -90 l-42 -13 -32 56 c-17 31 -69 94
-114 139 -68 67 -99 89 -176 126 -52 25 -120 51 -151 58 l-58 12 0 564 c0 444
3 563 13 563 26 0 114 49 159 89 32 28 60 68 85 119 36 72 38 81 38 171 0 83
-4 104 -28 155 l-27 58 53 58 c28 31 284 303 567 604 462 491 518 547 540 542
109 -25 187 -14 264 34 55 35 106 103 106 142 l0 28 329 0 c320 0 330 -1 336
-20 15 -46 85 -118 142 -146 82 -41 183 -41 265 -1 61 30 121 91 139 141 l11
31 334 -3 c321 -2 333 -3 339 -22 15 -46 85 -118 142 -146 48 -24 71 -29 133
-29 124 1 214 56 267 163 23 47 28 70 28 132 0 125 -62 222 -174 274 -64 29
-178 29 -243 -1 -54 -25 -129 -97 -148 -142 l-12 -30 -333 -3 -333 -3 -11 31
c-46 126 -230 205 -366 157z m144 -197 c67 -35 65 -143 -4 -174 -51 -23 -107
-7 -131 39 -47 91 44 182 135 135z m1230 0 c67 -35 65 -143 -4 -174 -51 -23
-107 -7 -131 39 -47 91 44 182 135 135z m-6440 -20 c67 -35 65 -143 -4 -174
-51 -23 -107 -7 -131 39 -47 91 44 182 135 135z m4000 0 c67 -35 65 -143 -4
-174 -51 -23 -107 -7 -131 39 -47 91 44 182 135 135z m-3947 -1297 c226 -47
398 -259 398 -489 0 -270 -230 -500 -500 -500 -269 0 -500 231 -500 500 0 225
164 433 383 486 66 16 152 17 219 3z m2408 -323 c59 -39 85 -89 85 -166 0 -78
-26 -127 -88 -168 -56 -37 -153 -39 -210 -3 -76 47 -111 140 -88 229 14 51 75
117 123 131 53 16 135 6 178 -23z m-477 -315 c34 -96 136 -195 229 -223 l38
-11 0 -562 0 -562 -57 -12 c-32 -7 -101 -33 -153 -58 -79 -38 -108 -59 -181
-132 -73 -73 -94 -102 -132 -181 -25 -52 -51 -121 -58 -152 l-12 -58 -662 0
-662 0 -11 38 c-28 93 -127 195 -223 229 l-49 18 0 561 0 561 58 12 c31 7 100
33 152 58 79 38 108 59 181 132 73 73 94 102 132 181 25 52 51 121 58 153 l12
57 661 0 661 0 18 -49z m-3584 -865 c67 -35 65 -143 -4 -174 -51 -23 -107 -7
-131 39 -47 91 44 182 135 135z m5600 -600 c67 -35 65 -143 -4 -174 -91 -41
-179 51 -131 137 26 47 84 63 135 37z m-1547 -97 c226 -47 398 -259 398 -489
0 -270 -230 -500 -500 -500 -270 0 -500 230 -500 500 0 132 53 255 150 351
125 123 286 173 452 138z m-2392 -323 c59 -39 85 -89 85 -166 0 -78 -26 -127
-88 -168 -56 -37 -153 -39 -210 -3 -76 47 -111 140 -88 229 14 51 75 117 123
131 53 16 135 6 178 -23z m539 -1380 c67 -35 65 -143 -4 -174 -51 -23 -107 -7
-131 39 -47 91 44 182 135 135z m-2200 -400 c67 -35 65 -143 -4 -174 -51 -23
-107 -7 -131 39 -47 91 44 182 135 135z m4000 0 c67 -35 65 -143 -4 -174 -51
-23 -107 -7 -131 39 -47 91 44 182 135 135z m-3990 -1220 c67 -35 65 -143 -4
-174 -51 -23 -107 -7 -131 39 -47 91 44 182 135 135z m-10 -1210 c67 -35 65
-143 -4 -174 -51 -23 -107 -7 -131 39 -47 91 44 182 135 135z m10 -1200 c67
-35 65 -143 -4 -174 -51 -23 -107 -7 -131 39 -47 91 44 182 135 135z"/>
<path d="M2504 9678 c20 -132 122 -233 254 -254 l42 -7 0 99 0 99 -39 16 c-29
13 -42 26 -52 53 l-13 36 -99 0 -100 0 7 -42z"/>
<path d="M5291 7484 c-10 -27 -23 -40 -52 -53 l-39 -16 0 -99 0 -99 42 7 c132
21 234 122 254 254 l7 42 -100 0 -99 0 -13 -36z"/>
</g>
</svg>
