<?xml version="1.0" standalone="no"?>
<!DOCTYPE svg PUBLIC "-//W3C//DTD SVG 20010904//EN"
 "http://www.w3.org/TR/2001/REC-SVG-20010904/DTD/svg10.dtd">
<svg version="1.0" xmlns="http://www.w3.org/2000/svg"
 width="1550.000000pt" height="2280.000000pt" viewBox="0 0 1550.000000 2280.000000"
 preserveAspectRatio="xMidYMid meet">
<metadata>
Created by potrace 1.15, written by Peter Selinger 2001-2017
</metadata>
<g transform="translate(0.000000,2280.000000) scale(0.100000,-0.100000)"
fill="#000000" stroke="none">
<path d="M14825 22600 c-161 -54 -245 -180 -245 -366 l0 -83 -125 -86 c-69
-48 -125 -90 -125 -95 0 -5 -20 12 -45 39 -24 26 -67 60 -95 75 -98 53 -249
55 -359 3 -189 -88 -259 -358 -139 -538 43 -64 123 -135 164 -145 l24 -6 0
-409 0 -409 -32 0 c-47 0 -147 -104 -177 -185 -38 -101 -29 -248 20 -330 30
-49 120 -134 161 -152 l38 -17 0 -408 0 -408 -28 0 c-57 0 -156 -92 -199 -185
-24 -52 -28 -72 -28 -155 0 -82 4 -103 27 -152 33 -72 108 -153 170 -184 l48
-24 0 -385 0 -385 -47 -22 c-61 -28 -132 -99 -162 -160 -58 -121 -49 -273 21
-379 43 -64 123 -135 164 -145 l24 -6 0 -409 0 -409 -32 0 c-47 0 -147 -104
-177 -185 -38 -101 -29 -248 20 -330 30 -49 120 -134 161 -152 l38 -17 0 -408
0 -408 -28 0 c-57 0 -156 -92 -199 -185 -24 -52 -28 -72 -28 -155 0 -82 4
-103 27 -152 33 -72 108 -153 170 -184 l48 -24 0 -378 0 -378 -37 -13 c-212
-76 -299 -359 -171 -552 43 -64 123 -135 164 -145 l24 -6 0 -409 0 -409 -31 0
c-42 0 -132 -86 -166 -160 l-26 -55 -314 -98 -313 -98 -57 47 c-92 75 -130 88
-253 88 -94 1 -111 -2 -160 -26 -84 -41 -135 -90 -172 -166 -30 -60 -33 -77
-36 -169 -4 -97 -2 -107 26 -168 61 -129 172 -205 313 -213 94 -5 174 15 246
64 77 53 127 128 153 229 5 22 14 46 19 53 7 12 529 182 558 182 7 0 19 -12
27 -27 22 -42 116 -132 158 -150 l38 -17 0 -408 0 -408 -28 0 c-57 0 -156 -92
-199 -185 -24 -52 -28 -72 -28 -155 0 -82 4 -103 27 -152 33 -72 108 -153 170
-184 l48 -24 0 -403 -1 -402 -60 -40 c-89 -59 -138 -127 -165 -230 -19 -68
-17 -118 4 -197 l19 -66 -605 -643 c-333 -354 -650 -692 -706 -752 l-101 -107
-84 25 c-60 18 -108 25 -166 25 l-81 0 -197 426 -197 426 24 31 c67 89 95 199
77 299 -22 127 -98 230 -209 285 -52 25 -67 28 -162 28 -92 -1 -112 -4 -160
-27 -81 -38 -134 -89 -172 -166 -31 -63 -33 -72 -33 -177 0 -98 3 -116 27
-167 32 -69 97 -136 161 -167 26 -13 85 -30 130 -39 l82 -15 193 -420 192
-419 -49 -67 c-49 -65 -101 -163 -101 -188 0 -10 -171 -13 -823 -13 l-824 0
-22 82 c-12 45 -44 128 -71 184 -42 87 -64 118 -140 197 -49 52 -114 111 -143
131 -65 45 -214 110 -302 132 l-65 16 0 418 c0 230 3 432 6 449 5 24 16 37 44
51 57 29 145 131 170 197 31 80 31 196 0 276 -46 122 -142 204 -267 227 -274
52 -485 -146 -452 -424 5 -36 18 -84 30 -108 29 -58 121 -151 169 -173 l40
-18 0 -447 0 -447 -82 -22 c-173 -47 -302 -124 -424 -254 -163 -171 -252 -407
-242 -642 l4 -91 -408 -128 -408 -127 -57 47 c-92 75 -130 88 -253 88 -94 1
-111 -2 -160 -26 -84 -41 -135 -90 -172 -166 -30 -60 -33 -77 -36 -169 -4 -97
-2 -107 26 -168 61 -129 172 -205 313 -213 94 -5 174 15 246 64 77 53 127 128
153 231 6 23 16 48 24 55 7 7 192 69 411 137 l398 125 16 -22 c9 -11 29 -42
45 -67 41 -67 178 -208 244 -252 70 -46 216 -110 300 -130 l62 -16 0 -631 c0
-347 -3 -660 -7 -696 l-6 -65 -79 -38 c-108 -53 -173 -118 -229 -231 l-44 -89
0 -126 c0 -119 2 -130 31 -197 l31 -71 -56 -59 c-31 -32 -302 -320 -602 -639
-300 -319 -593 -627 -651 -685 l-105 -105 -129 0 c-110 -1 -136 -4 -174 -22
-106 -49 -190 -142 -190 -210 l0 -33 -379 0 c-208 0 -392 3 -409 6 -21 4 -34
15 -43 35 -17 43 -112 135 -168 163 -101 52 -242 52 -346 2 -62 -31 -148 -118
-170 -174 l-16 -40 -372 5 c-205 2 -390 6 -412 9 -36 4 -43 10 -64 50 -32 59
-101 119 -179 157 -59 28 -68 29 -165 25 -76 -3 -114 -9 -149 -25 -68 -31
-141 -103 -174 -173 l-28 -60 -307 0 c-169 0 -320 3 -337 6 -21 4 -34 15 -43
35 -17 43 -112 135 -168 163 -101 52 -242 52 -346 2 -62 -31 -148 -118 -170
-174 l-16 -40 -372 5 c-205 2 -390 6 -412 9 -36 4 -43 10 -64 50 -49 92 -171
173 -276 183 l-59 6 -143 308 -143 309 24 31 c67 89 95 198 77 299 -22 127
-98 230 -209 285 -52 25 -67 28 -162 28 -92 -1 -112 -4 -160 -27 -81 -38 -134
-89 -172 -166 -31 -63 -33 -72 -33 -177 0 -98 3 -116 27 -167 32 -69 97 -136
161 -167 26 -13 85 -30 130 -39 l82 -15 136 -296 137 -296 -28 -30 c-16 -16
-41 -55 -57 -85 -26 -51 -28 -64 -28 -170 0 -106 2 -120 28 -172 36 -74 119
-150 195 -178 81 -31 235 -26 305 9 61 30 147 113 176 169 l21 42 283 0 c155
0 338 3 407 6 l125 7 24 -53 c46 -101 155 -178 288 -201 123 -22 259 30 340
130 25 31 50 66 55 77 14 31 55 34 398 34 l298 0 26 -44 c37 -63 117 -131 184
-156 81 -31 235 -26 305 9 61 30 147 113 176 169 l21 42 283 0 c155 0 338 3
407 6 l125 7 24 -53 c46 -101 155 -178 288 -201 123 -22 259 30 340 130 25 31
50 66 55 77 14 31 53 34 459 34 l358 0 37 -56 c75 -112 200 -171 344 -161 182
12 313 135 341 319 10 64 9 83 -8 150 l-19 77 684 728 c376 400 694 738 706
751 l23 24 85 -26 c249 -76 497 27 605 253 l38 78 74 7 c41 3 410 6 822 6
l747 0 11 -51 c14 -64 53 -164 99 -253 41 -78 165 -216 254 -281 66 -50 219
-119 312 -142 l66 -16 0 -447 0 -447 -40 -18 c-48 -22 -140 -115 -169 -173
-27 -52 -40 -154 -30 -227 17 -126 105 -242 215 -285 47 -19 78 -24 159 -24
90 -1 106 2 158 28 70 34 143 105 177 172 23 44 25 61 25 169 0 107 -3 125
-24 165 -32 61 -123 153 -171 175 l-40 18 0 447 0 448 65 16 c88 22 237 87
302 132 29 20 93 79 143 131 75 78 98 111 140 196 112 229 128 447 50 679 -17
49 -30 95 -30 101 0 7 12 20 28 29 15 9 232 157 482 329 250 172 462 312 470
312 8 -1 47 -13 85 -27 206 -75 426 25 490 222 25 76 17 229 -15 297 -36 74
-114 147 -185 174 -220 83 -449 -17 -510 -223 -8 -27 -15 -87 -15 -132 l0 -83
-157 -109 c-384 -265 -821 -562 -827 -562 -4 0 -34 22 -66 49 -105 88 -254
164 -382 196 l-68 17 0 638 c0 350 3 664 7 696 l6 59 79 38 c108 53 173 118
229 231 l44 89 0 126 c0 119 -2 130 -31 196 l-30 70 99 108 c55 59 372 396
704 750 479 508 610 641 627 639 11 -2 68 -4 126 -5 99 -2 109 0 172 30 77 36
142 98 178 169 22 44 25 61 25 164 0 106 -2 119 -28 173 -36 71 -114 151 -173
173 l-44 17 0 396 c0 218 4 401 8 407 4 6 21 19 39 28 51 26 129 110 160 173
25 53 28 68 28 163 0 93 -3 111 -27 163 -32 69 -123 162 -168 172 l-30 7 0
378 c0 207 3 391 6 408 4 21 15 34 35 43 43 17 135 112 164 168 70 138 47 315
-56 426 -50 54 -86 75 -129 75 l-30 0 0 394 c0 217 3 402 6 410 3 9 21 23 40
32 54 26 149 135 173 199 28 74 28 180 1 268 -23 75 -85 152 -156 193 l-44 26
0 376 c0 208 4 382 8 388 4 6 21 19 39 28 51 26 129 110 160 173 25 53 28 68
28 163 0 93 -3 111 -27 163 -32 69 -123 162 -168 172 l-30 7 0 378 c0 207 3
391 6 408 4 21 15 34 35 43 43 17 135 112 164 168 70 138 47 315 -56 426 -50
54 -86 75 -129 75 l-30 0 0 394 c0 217 3 402 6 410 3 9 21 23 40 32 54 26 149
135 173 199 28 74 28 180 1 268 -24 79 -88 154 -167 199 l-53 30 0 376 c0 208
4 382 8 388 4 6 21 19 39 28 51 26 129 110 160 173 25 53 28 68 28 163 0 93
-3 111 -27 163 -32 69 -123 162 -168 172 l-30 7 0 378 c0 207 3 391 6 408 4
21 15 34 35 43 43 17 135 112 164 168 70 138 47 315 -56 426 -50 54 -86 75
-129 75 l-30 0 0 394 c0 217 3 402 6 410 3 9 21 23 40 32 54 26 149 135 173
199 12 31 21 61 21 68 1 16 330 242 350 240 8 -1 47 -13 85 -27 206 -75 426
25 490 222 25 76 17 229 -15 297 -36 74 -113 147 -185 175 -86 32 -202 36
-280 10z m184 -255 c28 -14 61 -68 61 -100 0 -32 -33 -86 -61 -100 -61 -32
-135 -10 -163 49 -20 43 -20 59 0 102 28 59 102 81 163 49z m-923 -506 c49
-46 51 -121 3 -168 -93 -93 -245 21 -185 138 32 61 132 77 182 30z m3 -1495
c88 -73 43 -207 -69 -207 -50 0 -88 25 -106 70 -46 109 86 212 175 137z m-36
-1498 c96 -40 92 -177 -6 -215 -45 -17 -78 -9 -120 28 -28 26 -32 36 -32 79 0
56 19 86 70 108 38 17 49 17 88 0z m33 -1507 c49 -46 51 -121 3 -168 -93 -93
-245 21 -185 138 32 61 132 77 182 30z m3 -1495 c88 -73 43 -207 -69 -207 -50
0 -88 25 -106 70 -46 109 86 212 175 137z m-36 -1498 c96 -40 92 -177 -6 -215
-45 -17 -78 -9 -120 28 -28 26 -32 36 -32 79 0 56 19 86 70 108 38 17 49 17
88 0z m13 -1497 c49 -46 51 -121 3 -168 -93 -93 -245 21 -185 138 32 61 132
77 182 30z m3 -1495 c88 -73 43 -207 -69 -207 -50 0 -88 25 -106 70 -46 109
86 212 175 137z m-1308 -311 c29 -17 59 -67 59 -98 0 -32 -33 -86 -61 -100
-61 -32 -135 -10 -163 49 -20 43 -20 59 0 102 29 60 105 82 165 47z m1272
-1187 c96 -40 92 -177 -6 -215 -45 -17 -78 -9 -120 28 -28 26 -32 36 -32 79 0
56 19 86 70 108 38 17 49 17 88 0z m-4974 -1531 c28 -14 61 -68 61 -100 0 -32
-33 -86 -61 -100 -61 -32 -135 -10 -163 49 -20 43 -20 59 0 102 28 59 102 81
163 49z m5000 0 c28 -14 61 -68 61 -100 0 -32 -33 -86 -61 -100 -61 -32 -135
-10 -163 49 -20 43 -20 59 0 102 28 59 102 81 163 49z m-2750 -500 c28 -14 61
-68 61 -100 0 -32 -33 -86 -61 -100 -61 -32 -135 -10 -163 49 -20 43 -20 59 0
102 28 59 102 81 163 49z m-2185 -1120 c116 -25 209 -78 306 -175 65 -65 95
-103 123 -161 114 -232 76 -488 -99 -678 -197 -212 -473 -268 -724 -145 -90
44 -218 167 -267 255 -102 182 -107 382 -16 568 52 107 177 232 285 284 129
64 257 81 392 52z m3002 -401 c91 -56 137 -180 104 -279 -16 -47 -93 -133
-137 -151 -70 -30 -180 -12 -248 40 -56 43 -80 98 -80 186 0 58 5 84 23 117
61 116 224 158 338 87z m-597 -376 c30 -101 145 -227 253 -278 35 -17 69 -30
76 -30 9 0 12 -146 12 -699 l0 -698 -66 -16 c-93 -23 -246 -92 -312 -142 -32
-23 -94 -81 -140 -129 -68 -72 -92 -107 -132 -191 -27 -56 -59 -138 -71 -183
l-22 -82 -824 0 c-652 0 -823 3 -823 13 0 6 -13 40 -30 75 -51 108 -177 223
-277 253 l-43 12 0 697 0 698 64 16 c74 18 206 72 273 111 59 35 194 164 248
237 49 66 119 219 142 312 l16 66 822 0 822 0 12 -42z m-4468 -355 c29 -17 59
-67 59 -98 0 -32 -33 -86 -61 -100 -61 -32 -135 -10 -163 49 -20 43 -20 59 0
102 29 60 105 82 165 47z m6998 -748 c28 -14 61 -68 61 -100 0 -32 -33 -86
-61 -100 -61 -32 -135 -10 -163 49 -20 43 -20 59 0 102 28 59 102 81 163 49z
m-1953 -866 c301 -56 536 -355 511 -653 -13 -152 -71 -272 -191 -392 -61 -60
-100 -90 -156 -118 -177 -86 -363 -86 -540 0 -90 44 -218 167 -267 255 -102
182 -107 382 -16 568 52 107 177 232 285 284 124 61 247 79 374 56z m-2980
-405 c91 -56 137 -180 104 -279 -16 -47 -93 -133 -137 -151 -70 -30 -180 -12
-248 40 -56 43 -80 98 -80 186 0 58 5 84 23 117 61 116 224 158 338 87z
m-8607 -1009 c28 -14 61 -68 61 -100 0 -32 -33 -86 -61 -100 -61 -32 -135 -10
-163 49 -20 43 -20 59 0 102 28 59 102 81 163 49z m6540 -1220 c28 -14 61 -68
61 -100 0 -9 -7 -32 -16 -51 -41 -85 -167 -85 -208 0 -20 43 -20 59 0 102 28
59 102 81 163 49z m5000 0 c28 -14 61 -68 61 -100 0 -32 -33 -86 -61 -100 -61
-32 -135 -10 -163 49 -20 43 -20 59 0 102 28 59 102 81 163 49z m-8039 -34
c14 -10 32 -37 40 -60 14 -39 13 -44 -5 -79 -11 -20 -35 -45 -53 -55 -61 -36
-141 0 -163 73 -10 32 -9 44 7 77 34 69 113 89 174 44z m1513 15 c96 -40 92
-177 -6 -215 -45 -17 -78 -9 -120 28 -28 26 -32 36 -32 79 0 56 19 86 70 108
38 17 49 17 88 0z m-4443 -35 c14 -10 32 -37 40 -60 14 -39 13 -44 -5 -79 -11
-20 -35 -45 -53 -55 -61 -36 -141 0 -163 73 -10 32 -9 44 7 77 34 69 113 89
174 44z m1513 15 c96 -40 92 -177 -6 -215 -45 -17 -78 -9 -120 28 -28 26 -32
36 -32 79 0 56 19 86 70 108 38 17 49 17 88 0z"/>
<path d="M8890 6461 c-146 -47 -246 -166 -267 -317 l-6 -44 129 0 130 0 19 43
c15 31 31 47 63 62 l42 19 0 128 0 128 -27 -1 c-16 0 -53 -8 -83 -18z"/>
<path d="M12000 3602 l0 -128 43 -19 c31 -15 47 -31 62 -62 l19 -43 130 0 129
0 -6 44 c-21 154 -126 275 -276 320 -105 31 -101 35 -101 -112z"/>
</g>
</svg>
